<mxfile host="Electron" agent="Mozilla/5.0 (Windows NT 10.0; Win64; x64) AppleWebKit/537.36 (KHTML, like Gecko) draw.io/28.1.2 Chrome/138.0.7204.243 Electron/37.4.0 Safari/537.36" version="28.1.2">
  <diagram name="Trang-1" id="DuTRwZj5-j8VgL8ZLZOy">
    <mxGraphModel dx="922" dy="825" grid="1" gridSize="10" guides="1" tooltips="1" connect="1" arrows="1" fold="1" page="1" pageScale="1" pageWidth="827" pageHeight="1169" math="0" shadow="0">
      <root>
        <mxCell id="0" />
        <mxCell id="1" parent="0" />
        <mxCell id="FsCbY_czBh8tvv7KcO5u-11" style="edgeStyle=orthogonalEdgeStyle;rounded=0;orthogonalLoop=1;jettySize=auto;html=1;entryX=0.5;entryY=0;entryDx=0;entryDy=0;" parent="1" source="FsCbY_czBh8tvv7KcO5u-1" target="FsCbY_czBh8tvv7KcO5u-2" edge="1">
          <mxGeometry relative="1" as="geometry" />
        </mxCell>
        <mxCell id="FsCbY_czBh8tvv7KcO5u-1" value="Bắt đầu" style="ellipse;whiteSpace=wrap;html=1;" parent="1" vertex="1">
          <mxGeometry x="354" y="160" width="120" height="80" as="geometry" />
        </mxCell>
        <mxCell id="FsCbY_czBh8tvv7KcO5u-12" style="edgeStyle=orthogonalEdgeStyle;rounded=0;orthogonalLoop=1;jettySize=auto;html=1;entryX=0.5;entryY=0;entryDx=0;entryDy=0;" parent="1" source="FsCbY_czBh8tvv7KcO5u-2" target="FsCbY_czBh8tvv7KcO5u-3" edge="1">
          <mxGeometry relative="1" as="geometry" />
        </mxCell>
        <mxCell id="FsCbY_czBh8tvv7KcO5u-2" value="Nhập điểm" style="shape=parallelogram;perimeter=parallelogramPerimeter;whiteSpace=wrap;html=1;fixedSize=1;" parent="1" vertex="1">
          <mxGeometry x="341" y="320" width="146" height="70" as="geometry" />
        </mxCell>
        <mxCell id="FsCbY_czBh8tvv7KcO5u-7" style="edgeStyle=orthogonalEdgeStyle;rounded=0;orthogonalLoop=1;jettySize=auto;html=1;exitX=1;exitY=0.5;exitDx=0;exitDy=0;entryX=0.5;entryY=0;entryDx=0;entryDy=0;" parent="1" source="FsCbY_czBh8tvv7KcO5u-3" target="FsCbY_czBh8tvv7KcO5u-14" edge="1">
          <mxGeometry relative="1" as="geometry">
            <mxPoint x="514" y="660" as="targetPoint" />
          </mxGeometry>
        </mxCell>
        <mxCell id="FsCbY_czBh8tvv7KcO5u-10" value="không" style="edgeLabel;html=1;align=center;verticalAlign=middle;resizable=0;points=[];" parent="FsCbY_czBh8tvv7KcO5u-7" vertex="1" connectable="0">
          <mxGeometry x="-0.74" y="2" relative="1" as="geometry">
            <mxPoint as="offset" />
          </mxGeometry>
        </mxCell>
        <mxCell id="FsCbY_czBh8tvv7KcO5u-8" style="edgeStyle=orthogonalEdgeStyle;rounded=0;orthogonalLoop=1;jettySize=auto;html=1;entryX=0.5;entryY=0;entryDx=0;entryDy=0;" parent="1" source="FsCbY_czBh8tvv7KcO5u-3" target="FsCbY_czBh8tvv7KcO5u-13" edge="1">
          <mxGeometry relative="1" as="geometry">
            <mxPoint x="314" y="660" as="targetPoint" />
            <Array as="points">
              <mxPoint x="330" y="520" />
            </Array>
          </mxGeometry>
        </mxCell>
        <mxCell id="FsCbY_czBh8tvv7KcO5u-9" value="có" style="edgeLabel;html=1;align=center;verticalAlign=middle;resizable=0;points=[];" parent="FsCbY_czBh8tvv7KcO5u-8" vertex="1" connectable="0">
          <mxGeometry x="-0.72" y="-2" relative="1" as="geometry">
            <mxPoint as="offset" />
          </mxGeometry>
        </mxCell>
        <mxCell id="FsCbY_czBh8tvv7KcO5u-3" value="điểm &amp;gt;=5" style="rhombus;whiteSpace=wrap;html=1;" parent="1" vertex="1">
          <mxGeometry x="374" y="480" width="80" height="80" as="geometry" />
        </mxCell>
        <mxCell id="fZjjCh63rsIBkqdkGyqd-2" style="edgeStyle=orthogonalEdgeStyle;rounded=0;orthogonalLoop=1;jettySize=auto;html=1;entryX=0;entryY=0.5;entryDx=0;entryDy=0;" edge="1" parent="1" source="FsCbY_czBh8tvv7KcO5u-13" target="FsCbY_czBh8tvv7KcO5u-22">
          <mxGeometry relative="1" as="geometry" />
        </mxCell>
        <mxCell id="FsCbY_czBh8tvv7KcO5u-13" value="Xuất đạt" style="rounded=1;whiteSpace=wrap;html=1;" parent="1" vertex="1">
          <mxGeometry x="270" y="640" width="120" height="60" as="geometry" />
        </mxCell>
        <mxCell id="fZjjCh63rsIBkqdkGyqd-3" style="edgeStyle=orthogonalEdgeStyle;rounded=0;orthogonalLoop=1;jettySize=auto;html=1;entryX=1;entryY=0.5;entryDx=0;entryDy=0;" edge="1" parent="1" source="FsCbY_czBh8tvv7KcO5u-14" target="FsCbY_czBh8tvv7KcO5u-22">
          <mxGeometry relative="1" as="geometry" />
        </mxCell>
        <mxCell id="FsCbY_czBh8tvv7KcO5u-14" value="xuất k đạt" style="rounded=1;whiteSpace=wrap;html=1;" parent="1" vertex="1">
          <mxGeometry x="454" y="640" width="120" height="60" as="geometry" />
        </mxCell>
        <mxCell id="FsCbY_czBh8tvv7KcO5u-22" value="kết thúc" style="ellipse;whiteSpace=wrap;html=1;" parent="1" vertex="1">
          <mxGeometry x="367" y="810" width="120" height="80" as="geometry" />
        </mxCell>
      </root>
    </mxGraphModel>
  </diagram>
</mxfile>
